<svg xmlns="http://www.w3.org/2000/svg" viewBox="0 0 298.76 176.86"><defs><style>.cls-1{fill:#fff}</style></defs><g id="Capa_2" data-name="Capa 2"><g id="Capa_1-2" data-name="Capa 1"><path class="cls-1" d="M293.07 17.23l-29.4 116.7a2.89 2.89 0 01-2.8 2.18H62.69a2.89 2.89 0 01-2.8-2.18l-29.4-116.7a2.89 2.89 0 00-2.8-2.23 2.89 2.89 0 00-2.8 3.61L56.23 140.1a2.89 2.89 0 002.8 2.17h205.5a2.89 2.89 0 002.8-2.17l31.34-121.44a2.89 2.89 0 00-2.8-3.61 2.89 2.89 0 00-2.8 2.18z"/><path class="cls-1" d="M219.57 27a25.77 25.77 0 00-23.9 16.15 49.4 49.4 0 00-83.87 35.44c0 1.11.05 2.22.12 3.31a25.78 25.78 0 1016.23 33.41 49.41 49.41 0 0082.48-36.72v-1.64a25.77 25.77 0 109-49.92zm-113.1 90.41v4.19h-4v-4.07a12.24 12.24 0 01-6-1.73l.95-2.63a10.49 10.49 0 005.66 1.69c2.79 0 4.68-1.61 4.68-3.85s-1.53-3.5-4.44-4.68c-4-1.57-6.64-3.38-6.64-6.8 0-3.26 3.79-5.74 5.79-6.33v-4.6h4v4.44a9 9 0 014.48 1.38l-1.3 2.58a10.22 10.22 0 00-5.11-1.34c-3 0-4.24 1.81-4.24 3.38 0 2 1.42 3.07 4.83 4.48 4 1.65 6.82 3.69 6.82 7.19.05 3.16-3.48 6.06-5.48 6.73zm59-17.73v7.92h-6v-7.66c-4-.08-9.44-1.43-12.08-3.32l1.53-5a19.6 19.6 0 0010.71 3.24c5.35 0 8.9-3.09 8.9-7.38 0-4.14-3-6.7-8.55-9-7.68-3-12.16-6.48-12.16-13 0-6.25 5.65-11 11.65-12.13v-7.72h6V53a17.78 17.78 0 018.84 2.64l-2.36 5a19.3 19.3 0 00-9.73-2.56c-5.8 0-8.1 3.46-8.1 6.48 0 3.92 2.73 5.88 9.28 8.59 7.76 3.16 12.83 7.08 12.83 13.79 0 5.92-4.76 11.5-10.76 12.78zm58-35.88v4.8h-4V64c-2 0-5.33-.75-6.7-1.73l.6-2.63a9.88 9.88 0 005.49 1.69c2.79 0 4.59-1.61 4.59-3.85s-1.58-3.5-4.48-4.68c-4-1.57-6-3.38-6-6.8 0-3.26 4.47-5.74 6.47-6.33v-4h4v3.83a6.41 6.41 0 013.77 1.38l-1.65 2.59a11.06 11.06 0 00-5.29-1.34c-3 0-4.33 1.81-4.33 3.38 0 2 1.37 3.07 4.79 4.48 4 1.65 7.5 3.69 7.5 7.19.04 3.08-2.76 5.99-4.76 6.65zM89.7 148.35A14.25 14.25 0 10104 162.6a14.25 14.25 0 00-14.3-14.25zm0 24.33a10.08 10.08 0 1110.08-10.08 10.08 10.08 0 01-10.08 10.08zm144.79-24.33a14.25 14.25 0 1014.25 14.25 14.25 14.25 0 00-14.25-14.25zm0 24.33a10.08 10.08 0 1110.08-10.08 10.08 10.08 0 01-10.08 10.08z"/><circle class="cls-1" cx="15.05" cy="15.05" r="15.05"/></g></g></svg>