<svg xmlns="http://www.w3.org/2000/svg" viewBox="0 0 295.82 225.01"><defs><style>.cls-1{fill:#fff}</style></defs><g id="Capa_2" data-name="Capa 2"><g id="Capa_1-2" data-name="Capa 1"><path class="cls-1" d="M192.65 86.39l4.42-5.05.15-.16-.24.22m.96-.9l-.41.39.13-.12 6.66-5.24m67.98 71.81l-21-22.11 38.23-30a17.75 17.75 0 013 23.87zM261 158.46L230.47 178a17.78 17.78 0 01-23.71-4.17l33-37.83z"/><path class="cls-1" d="M286.8 174.1a7.89 7.89 0 01-11.06-.15l-83.11-87.56 4.43-5.06.16-.16.31-.29.16-.14 6.53-5.14 83 87.45a7.89 7.89 0 01-.42 11.05zm-89.72-92.8l-.01-.01-.05-.04.32-.25.17-.13-.31.29-.12.14z"/><path class="cls-1" d="M213.89 85.8l-9.68-10.2L220 63.24a8.9 8.9 0 011.49 12zm-16.24-5.04l-.14.11-.31.29.14-.16.26-.31.04.05.01.02zm4.97 16.16l-12.31 7.87a8.93 8.93 0 01-11.9-2.08l14.22-16.32zM59.38 9l-3.84 8.57c3 1.49 6.15 3.17 9.49 5L68.88 14c-3.35-1.84-6.54-3.51-9.5-5zm82.34 144.09a80.56 80.56 0 01-2.51 8.09l9 2.83a88.81 88.81 0 002.8-9.17zm-67.48 62.52c-.86 0-1.71 0-2.59-.06C40.32 214 17 184.58 11 157.67a68 68 0 01-1.29-8l-9.45-.17a77.53 77.53 0 001.57 10.22c6.78 30.29 33.4 63.44 69.36 65.21 1 0 2.05.08 3.07.08 36.38 0 60.83-32 70.94-53.86l-9-2.85c-9.36 19.59-30.82 47.33-61.96 47.31zm78.1-101c-4.21-26.73-18.75-48.59-36.1-65.78a111.48 111.48 0 0121.27 2.75l2.28-9.1a119.89 119.89 0 00-33.62-2.9c-4.93-4.19-10-8.05-14.94-11.56l-5.81 7.3c2.59 1.82 5.21 3.73 7.8 5.74a108.28 108.28 0 00-29.06 9.38c-28.06 13.75-54.37 41.74-62 74l9.29 1.28c7.11-29 31.19-54.34 56.81-66.88a99.47 99.47 0 0134.77-9.66c19 16.86 35.62 39.07 40 66.85a94 94 0 01.2 29.45l9.24 1.75a103.72 103.72 0 00-.13-32.6zM.75 132.09a78.4 78.4 0 00-.75 9.69l9.37.18a67.8 67.8 0 01.66-8.6zM165.31 51.3l-3.84 8.57c3.39 1.58 6.74 3.36 10 5.28l5.08-7.9q-5.49-3.25-11.24-5.95zm17.85 10.14l-5.07 7.9c2.52 1.73 5 3.54 7.43 5.48l5.86-7.35q-4.01-3.19-8.22-6.03zm-35.81-17l-2.28 9.11q4.65 1.39 9.21 3.18l3.84-8.57q-5.32-2.09-10.76-3.68zM75.69 18l-3.84 8.58c2.31 1.38 4.68 2.86 7.07 4.42l5.83-7.35c-3.08-2.06-6.12-3.95-9.06-5.65zM39.28 0l-3.33 8.78c1.83.69 6.35 2.48 12.55 5.36l3.84-8.56C45.89 2.58 41.21.73 39.28 0z"/></g></g></svg>